<svg version="1.0" xmlns="http://www.w3.org/2000/svg" width="974.000000pt" height="264.000000pt" viewBox="0 0 974.000000 264.000000" preserveAspectRatio="xMidYMid meet">
    <g transform="translate(0.000000,264.000000) scale(0.100000,-0.100000)" fill="#00dc82" stroke="none">
        <path d="M110 1337 l0 -1204 152 23 c84 13 159 24 165 24 10 0 13 183 15 863 l3 862 167 -615 c93 -338 193 -712 224 -830 31 -118 57 -216 58 -216 0 -1 82 9 181 22 99 13 183 23 188 24 4 0 7 506 7 1125 l0 1125 -165 0 -165 0 -1 -662 0 -663 -183 660 -183 660 -231 3 -232 2 0 -1203z"/>
        <path d="M1522 1623 l3 -918 23 -66 c76 -225 251 -325 521 -298 284 29 458 168 522 416 18 72 19 118 19 930 l0 853 -175 0 -175 0 0 -847 c0 -553 -4 -861 -10 -885 -14 -48 -55 -97 -97 -114 -39 -17 -138 -20 -173 -6 -33 13 -65 49 -79 91 -8 24 -11 278 -11 897 l0 864 -185 0 -186 0 3 -917z"/>
        <path d="M2820 2490 c103 -261 360 -931 360 -938 0 -5 -41 -119 -91 -253 -114 -304 -309 -848 -309 -861 0 -7 45 -8 128 -4 170 9 222 16 222 29 0 12 161 481 245 716 l48 134 40 -109 c21 -60 87 -246 147 -414 l108 -305 191 0 c104 1 193 3 195 6 5 5 -162 455 -317 852 l-85 218 98 252 c53 139 138 356 189 483 50 126 91 233 91 237 0 4 -77 6 -171 5 l-171 -3 -137 -362 c-75 -200 -139 -363 -142 -363 -3 0 -66 164 -139 365 l-134 365 -193 0 -193 0 20 -50z"/>
        <path d="M4182 2398 l3 -143 193 -3 192 -2 0 -881 c0 -799 1 -881 16 -875 9 3 92 6 185 6 l169 0 0 875 0 875 190 0 190 0 0 145 0 145 -570 0 -571 0 3 -142z"/>
        <path d="M5470 1520 c0 -808 3 -1021 13 -1025 6 -2 92 -6 190 -10 l177 -6 0 437 0 436 235 -3 235 -4 0 146 0 146 -112 6 c-62 4 -168 7 -235 7 l-123 0 0 300 0 300 300 0 300 0 0 145 0 145 -490 0 -490 0 0 -1020z"/>
        <path d="M6620 1496 l0 -1045 43 -5 c23 -3 128 -10 232 -16 105 -6 298 -20 430 -31 132 -10 247 -19 255 -19 13 0 15 23 12 164 l-3 163 -72 6 c-40 3 -160 11 -267 17 -107 6 -210 13 -227 16 l-33 5 0 894 0 895 -185 0 -185 0 0 -1044z"/>
        <path d="M7750 1452 l0 -1089 133 -12 c72 -6 156 -14 185 -18 l52 -6 0 1107 0 1106 -185 0 -185 0 0 -1088z"/>
        <path d="M8330 2535 c0 -3 52 -150 115 -326 63 -176 149 -416 189 -533 l74 -213 -75 -209 c-177 -492 -333 -938 -329 -942 3 -2 80 -13 173 -24 137 -16 168 -17 172 -6 3 7 71 211 151 453 l147 440 51 -160 c57 -179 188 -616 222 -742 l23 -82 46 -7 c25 -4 112 -17 194 -29 103 -15 147 -18 147 -10 0 23 -151 513 -334 1080 l-68 210 142 410 c78 226 164 474 190 553 l49 142 -172 0 -172 0 -139 -410 c-76 -226 -141 -409 -143 -407 -2 3 -63 186 -136 408 l-133 404 -192 3 c-106 1 -192 0 -192 -3z"/>
    </g>
</svg>